<?xml version="1.0" encoding="UTF-8"?>
<svg id="_图形" data-name="图形" xmlns="http://www.w3.org/2000/svg" viewBox="0 0 32 32">
  <path d="M16,15c3.87,0,7-3.13,7-7s-3.13-7-7-7-7,3.13-7,7,3.13,7,7,7ZM16,3c2.76,0,5,2.24,5,5s-2.24,5-5,5-5-2.24-5-5,2.24-5,5-5Z"/>
  <path d="M23.32,16.34l-.09-.02c-.97-.18-2.43-.21-3.96-.21-1.08,0-2.21.02-3.23.02-.36,0-.71,0-1.04,0-.27,0-.54,0-.8,0-.63,0-1.27,0-1.88,0-1.72,0-3.31.05-4.41.45-5.23,1.82-5.18,7.86-1.15,11.07,2.49,2.25,5.86,3.37,9.24,3.37,4.33,0,8.67-1.84,11.16-5.48,2.57-3.64.38-8.43-3.84-9.18ZM25.51,24.39c-1.97,2.89-5.53,4.61-9.51,4.61-3.02,0-5.9-1.04-7.9-2.85l-.05-.04-.05-.04c-1.56-1.24-2.39-3.11-2.1-4.76.23-1.34,1.15-2.33,2.68-2.86.81-.29,2.28-.33,3.74-.33h.91c.32,0,.64,0,.97,0,.27,0,.53,0,.8,0,.33,0,.68,0,1.04,0,.51,0,1.04,0,1.59,0,.55,0,1.1,0,1.64,0,1.12,0,2.71.02,3.58.18l.12.02c1.37.24,2.5,1.14,3.01,2.4.5,1.21.33,2.55-.47,3.69Z"/>
</svg>