<?xml version="1.0" encoding="UTF-8"?>
<svg id="SVG_Icons" data-name="SVG Icons" xmlns="http://www.w3.org/2000/svg" xmlns:xlink="http://www.w3.org/1999/xlink" viewBox="0 0 1920 1920">
  <defs>
    <style>
      .cls-1 {
        fill: url(#_未命名的渐变_5);
      }

      .cls-2 {
        fill: #10211b;
      }

      .cls-3 {
        fill: #edf9f2;
      }

      .cls-4 {
        clip-path: url(#clippath);
      }
    </style>
    <linearGradient id="_未命名的渐变_5" data-name="未命名的渐变 5" x1="679.45" y1="1408.43" x2="1543.74" y2="26.94" gradientUnits="userSpaceOnUse">
      <stop offset="0" stop-color="#1c2d25"/>
      <stop offset="1" stop-color="#070707"/>
    </linearGradient>
    <clipPath id="clippath">
      <circle class="cls-3" cx="960.04" cy="960" r="845.04"/>
    </clipPath>
  </defs>
  <circle class="cls-1" cx="960" cy="960" r="960"/>
  <g>
    <circle class="cls-3" cx="960.04" cy="960" r="845.04"/>
    <g class="cls-4">
      <path class="cls-2" d="M1476.18,741.93c-83.96-203.93-295.24-344.68-516.14-342.12-300.71-6.34-566.53,259.49-560.19,560.19,0,66.23,11.46,131.08,34.07,192.76l105.32-38.6c-18.06-49.28-27.21-101.14-27.21-154.16,0-247.04,200.98-448.02,448.02-448.02s448.02,200.98,448.02,448.02c0,53.02-9.16,104.89-27.21,154.16l105.32,38.6c48.58-131.3,45.05-282.13-9.98-410.83Z"/>
      <path class="cls-2" d="M1462.7,1358.2c-21.05-23-67.63-74.23-87.85-97.12-51.99-57.25-113.94-102.38-184.14-134.14-72.7-32.89-150.31-49.56-230.68-49.56s-157.98,16.68-230.68,49.56c-70.2,31.76-132.15,76.89-184.07,134.07l-.03.04s-.02.02-.03.03l-.18.2-87.67,96.22h107.93c47.62,47.37,102.69,85.36,164.06,113.12,72.7,32.89,150.31,49.56,230.67,49.56s157.98-16.67,230.67-49.56c61.06-27.62,115.88-65.38,163.34-112.42h108.65ZM960.04,1408.02c-107.94,0-212.11-39.27-293.07-109.19,81.52-69.72,185.46-109.5,293.07-109.28v.7c108.21-.56,211.44,39.89,292.66,108.93-80.9,69.7-184.9,108.84-292.66,108.84Z"/>
    </g>
  </g>
</svg>